<svg width="450" height="450" xmlns="http://www.w3.org/2000/svg">
 <g>
  <title>Layer 1</title>
  <path stroke="null" fill="#000000" d="m446.40001,225.43871l-83.19469,-40.85226l0,23.60353c-0.97876,0 -2.4469,-0.45391 -3.42566,-0.45391l-90.5354,0l45.02301,-41.76009c0.48938,-0.45391 0.48938,-0.45391 0.48938,-0.90783c13.70266,7.26262 27.89469,7.71654 35.72478,0.45391c2.4469,-2.26957 4.40442,-5.44697 4.89381,-9.07828l0.48938,0.45391l6.85133,-62.18622l-64.59823,8.17045l0,0c-3.91504,0.45391 -7.34071,2.26957 -10.27699,4.53914c-7.83009,7.26262 -6.85133,19.97222 0.48938,32.68181c-0.48938,0.45391 -0.48938,0.45391 -0.97876,0.90783l-45.02301,41.76009l0,-87.60541l24.95841,0l-44.04425,-77.16538l-44.04425,77.16538l24.95841,0l0,113.02459l-116.96195,0l0,-23.14962l-83.19469,40.85226l83.19469,40.85226l0,-23.14962l91.51416,0l-45.02301,41.76009c-13.70266,-6.80871 -27.40531,-7.71654 -35.2354,-0.45391c-2.4469,2.26957 -4.40442,5.44697 -4.89381,9.07828l-0.48938,-0.90783l-6.85133,62.18622l64.59823,-8.17045l0,0c3.91504,-0.45391 7.34071,-2.26957 10.27699,-4.53914c7.83009,-7.26262 6.85133,-19.97222 -0.48938,-32.68181l45.02301,-41.76009l0,84.42801l-24.95841,0l44.04425,77.16538l44.04425,-77.16538l-24.95841,0l0,-108.93936l116.96195,0c0.97876,0 2.4469,0 3.42566,-0.45391l0,23.60353l82.21593,-41.30618z" id="svg_1"/>
 </g>

</svg>