<svg width="100" height="125" xmlns="http://www.w3.org/2000/svg">

 <g>
  <title>Layer 1</title>
  <path id="svg_1" d="m97.01,52.992c-1.657,0 -3,-1.344 -3,-3s1.343,-3 3,-3s3,1.343 3,3s-1.343,3 -3,3zm-5.01,-1.023l-2,0c-0.552,0 -1,-0.448 -1,-1l0,-2c0,-0.553 0.448,-1 1,-1l2,0c0.553,0 1,0.447 1,1l0,2c0,0.552 -0.447,1 -1,1zm-42.507,35.031c-19.595,0 -36.493,-17.134 -36.493,-37s16.898,-37 36.493,-37s37.507,17.133 37.507,37s-17.912,37 -37.507,37zm0.015,-70c-17.682,0 -32.508,15.05 -32.508,33c0,17.95 14.826,33 32.508,33s33.492,-15.051 33.492,-33c0,-17.95 -15.811,-33 -33.492,-33zm-2.508,40.939l0,-2.998c1.14,0.036 2.295,0.059 3.474,0.059c15.158,0 26.526,-3 26.526,-5c0,-2 -11.368,-5 -26.526,-5c-1.179,0 -2.334,0.023 -3.474,0.058l0,-2.998c1.146,-0.037 2.306,-0.06 3.492,-0.06c17.714,0 30.508,4 30.508,8c0,4 -12.794,8 -30.508,8c-1.186,0 -2.346,-0.024 -3.492,-0.061zm16,-7.939c0,1.657 -5.82,3 -13,3c-1.039,0 -2.032,-0.038 -3,-0.092l0,-5.817c0.968,-0.054 1.961,-0.091 3,-0.091c7.18,0 13,1.343 13,3zm-15,0c0,1.105 0.896,2 2,2s2,-0.896 2,-2c0,-1.104 -0.896,-2 -2,-2s-2,0.895 -2,2zm2,-27c-2,0 -5,11.572 -5,27s3,27 5,27c1.536,0 3.656,-6.842 4.559,-17l2.988,0c-1.142,12.607 -4.338,21 -7.547,21c-4,0 -8,-13 -8,-31c0,-18 4,-31 8,-31c3.211,0 6.417,8.386 7.559,21l-2.997,0c-0.905,-10.159 -3.026,-17 -4.562,-17zm-31,27c0,-3.163 8.634,-6.318 21,-7.503l0,2.985c-9.97,0.928 -17,3.007 -17,4.518s7.03,3.59 17,4.518l0,2.985c-12.366,-1.185 -21,-4.34 -21,-7.503zm18,0c0,-0.729 1.128,-1.396 3,-1.917l0,3.833c-1.872,-0.52 -3,-1.187 -3,-1.916zm13.948,-43c0.55,0 0.995,0.448 0.995,1l0,2c0,0.552 -0.445,1 -0.995,1l-1.989,0c-0.55,0 -0.995,-0.448 -0.995,-1l0,-2c0,-0.552 0.445,-1 0.995,-1l1.989,0zm-0.971,-1.01c-1.648,0 -2.984,-1.343 -2.984,-3c0,-1.657 1.336,-3 2.984,-3s2.984,1.343 2.984,3c0,1.657 -1.336,3 -2.984,3zm-39.977,46.01l-2,0c-0.552,0 -1,-0.448 -1,-1l0,-2c0,-0.552 0.448,-1 1,-1l2,0c0.553,0 1,0.448 1,1l0,2c0,0.552 -0.447,1 -1,1zm-7.01,1.023c-1.656,0 -3,-1.344 -3,-3c0,-1.657 1.344,-3 3,-3c1.657,0 3,1.343 3,3c0,1.657 -1.343,3 -3,3zm46,39.977c-0.55,0 -0.995,-0.448 -0.995,-1l0,-2c0,-0.553 0.445,-1 0.995,-1l1.989,0c0.55,0 0.995,0.447 0.995,1l0,2c0,0.552 -0.445,1 -0.995,1l-1.989,0zm1.018,1.01c1.648,0 2.984,1.343 2.984,3c0,1.656 -1.336,3 -2.984,3s-2.984,-1.344 -2.984,-3c-0.001,-1.657 1.335,-3 2.984,-3z" clip-rule="evenodd" fill-rule="evenodd"/>
 </g>
</svg>