<svg id="Layer_1" enable-background="new 0 0 512 512" height="512" viewBox="0 0 512 512" width="512" xmlns="http://www.w3.org/2000/svg"><g><path d="m344 461v-346c0-1.657-1.343-3-3-3h-170c-1.657 0-3 1.343-3 3v346c0 1.657 1.343 3 3 3h170c1.657 0 3-1.343 3-3z"/><path d="m352 64h-40v-40c0-13.23-10.77-24-24-24h-64c-13.23 0-24 10.77-24 24v40h-40c-22.06 0-40 17.94-40 40v368c0 22.06 17.94 40 40 40h192c22.06 0 40-17.94 40-40v-368c0-22.06-17.94-40-40-40zm8 400c0 8.82-7.18 16-16 16h-176c-8.82 0-16-7.18-16-16v-352c0-8.82 7.18-16 16-16h176c8.82 0 16 7.18 16 16z"/></g></svg>