<?xml version="1.0" encoding="utf-8"?><svg version="1.1" id="Layer_1" xmlns="http://www.w3.org/2000/svg" xmlns:xlink="http://www.w3.org/1999/xlink" x="0px" y="0px" viewBox="0 0 122.88 76.92" style="enable-background:new 0 0 122.88 76.92" xml:space="preserve"><style type="text/css">.st0{fill-rule:evenodd;clip-rule:evenodd;}</style><g><path class="st0" d="M13.49,0h95.9c3.71,0,7.08,1.52,9.53,3.96c2.45,2.45,3.96,5.82,3.96,9.53v34.46c0,3.71-1.51,7.11-3.96,9.58 c-2.43,2.44-5.79,3.97-9.53,3.97H24.87L3.81,76.47c-1.08,0.77-2.58,0.52-3.35-0.57c-0.3-0.42-0.45-0.91-0.45-1.39H0V13.49 C0,9.78,1.52,6.4,3.96,3.96C6.4,1.52,9.78,0,13.49,0L13.49,0z M45.98,15.26v29.25h-7.62V32.23h-2.22v12.28h-7.62V15.26h7.62v10.46 h2.22V15.26H45.98L45.98,15.26z M65.36,32.94H55.9v5.2c0,1.08,0.08,1.79,0.23,2.1c0.16,0.31,0.46,0.47,0.91,0.47 c0.56,0,0.94-0.21,1.12-0.62c0.19-0.42,0.28-1.23,0.28-2.42v-3.17h6.91v1.78c0,1.49-0.09,2.63-0.28,3.42 c-0.19,0.8-0.63,1.65-1.31,2.55c-0.68,0.91-1.56,1.58-2.61,2.04c-1.05,0.45-2.37,0.68-3.96,0.68c-1.54,0-2.9-0.22-4.09-0.67 c-1.18-0.44-2.1-1.05-2.76-1.83c-0.66-0.78-1.11-1.63-1.36-2.57c-0.25-0.93-0.38-2.29-0.38-4.07v-7c0-2.1,0.28-3.75,0.85-4.96 c0.57-1.21,1.49-2.14,2.78-2.78c1.29-0.65,2.77-0.97,4.45-0.97c2.05,0,3.73,0.39,5.07,1.17c1.33,0.78,2.27,1.81,2.8,3.09 c0.54,1.28,0.8,3.08,0.8,5.41V32.94L65.36,32.94z M58.08,29.05V27.3c0-1.25-0.07-2.04-0.2-2.4c-0.14-0.36-0.41-0.54-0.83-0.54 c-0.52,0-0.84,0.15-0.96,0.46c-0.12,0.31-0.19,1.13-0.19,2.48v1.75H58.08L58.08,29.05z M75.24,15.26v29.25h-7.51V15.26H75.24 L75.24,15.26z M85.28,20.55l-0.13,2.12c0.65-0.86,1.37-1.5,2.15-1.93c0.78-0.43,1.64-0.63,2.56-0.63c1.13,0,2.11,0.3,2.94,0.91 c0.82,0.61,1.34,1.31,1.54,2.11c0.2,0.79,0.31,2.14,0.31,4.05v10.1c0,2.18-0.13,3.73-0.39,4.65c-0.26,0.92-0.79,1.66-1.59,2.21 c-0.8,0.55-1.77,0.82-2.9,0.82c-0.9,0-1.74-0.21-2.51-0.63c-0.77-0.43-1.47-1.05-2.11-1.89v5.49h-7.28V20.55H85.28L85.28,20.55z M87.37,27.52c0-1.49-0.06-2.38-0.17-2.69c-0.11-0.31-0.41-0.47-0.91-0.47c-0.49,0-0.8,0.18-0.94,0.54 c-0.14,0.36-0.21,1.23-0.21,2.62v9.94c0,1.44,0.07,2.35,0.22,2.71c0.15,0.36,0.46,0.54,0.95,0.54c0.47,0,0.76-0.17,0.88-0.5 c0.12-0.33,0.17-1.13,0.17-2.41V27.52L87.37,27.52z"/></g></svg>