<svg width="228" height="244.5" xmlns="http://www.w3.org/2000/svg">
 <defs>
  <filter id="svg_2_blur">
   <feGaussianBlur stdDeviation="0.1" in="SourceGraphic"/>
  </filter>
 </defs>
 <g>
  <title>Layer 1</title>
  <path stroke-width="26" filter="url(#svg_2_blur)" id="svg_1" d="m107.6,43.6l-3.8,0c-1,0 -1.7,0.8 -1.7,1.7l0,3.8c0,1 0.8,1.7 1.7,1.7l3.8,0c1,0 1.7,-0.8 1.7,-1.7l0,-3.8c0.1,-0.9 -0.7,-1.7 -1.7,-1.7z"/>
  <path stroke-width="26" id="svg_2" d="m121.3,55.2c-1,0 -1.7,0.8 -1.7,1.7l0,1.7l-4.8,-4.7c0.4,-0.8 0.6,-1.7 0.6,-2.6l0,-8.2c0,-3.1 -2.5,-5.7 -5.7,-5.7l-2.3,0l0,-5.4l1.3,1.2c0.3,0.3 0.8,0.5 1.2,0.5c0.5,0 0.9,-0.2 1.3,-0.5c0.7,-0.7 0.6,-1.8 -0.1,-2.5l-4.3,-4.1c-0.7,-0.6 -1.7,-0.6 -2.4,0l-4.3,4.1c-0.7,0.7 -0.7,1.8 -0.1,2.5c0.7,0.7 1.8,0.7 2.5,0.1l1.3,-1.2l0,5.4l-2.3,0c-3.1,0 -5.7,2.5 -5.7,5.7l0,2.3l-14.9,0l1.2,-1.3c0.7,-0.7 0.6,-1.8 -0.1,-2.5c-0.7,-0.7 -1.8,-0.6 -2.5,0.1l-4,4.2c0,0 -0.1,0.1 -0.1,0.1c0,0 -0.1,0.1 -0.1,0.1c0,0.1 -0.1,0.1 -0.1,0.2c0,0 -0.1,0.1 -0.1,0.1c0,0.1 0,0.1 -0.1,0.2c0,0 0,0.1 0,0.1c0,0.2 0,0.5 0,0.7c0,0 0,0.1 0,0.1c0,0.1 0,0.1 0.1,0.2c0,0 0,0.1 0.1,0.1c0,0.1 0.1,0.1 0.1,0.2c0,0 0.1,0.1 0.1,0.1c0,0 0.1,0.1 0.1,0.1l4.1,4.3c0.3,0.4 0.8,0.5 1.3,0.5c0.4,0 0.9,-0.2 1.2,-0.5c0.7,-0.7 0.7,-1.8 0.1,-2.5l-1.3,-1.1l15.1,0l0,2.3c0,3.1 2.5,5.7 5.7,5.7l8.1,0c0.9,0 1.8,-0.2 2.5,-0.6l4.7,4.7l-1.7,0c-1,0 -1.7,0.8 -1.7,1.7s0.8,1.7 1.7,1.7l5.9,0c1,0 1.7,-0.8 1.7,-1.7l0,-5.8c0.1,-1 -0.7,-1.8 -1.6,-1.8zm-19.6,-1.7c-1.2,0 -2.2,-1 -2.2,-2.2l0,-8.2c0,-1.2 1,-2.2 2.2,-2.2l8.1,0c1.2,0 2.2,1 2.2,2.2l0,8.2c0,1.2 -1,2.2 -2.2,2.2l-8.1,0z"/>
 </g>
</svg>