<svg id="bold" enable-background="new 0 0 24 24" height="512" viewBox="0 0 24 24" width="512" xmlns="http://www.w3.org/2000/svg"><path d="m20.72 2.22-.796.796c-2.163-1.927-4.95-3.016-7.924-3.016-6.617 0-12 5.383-12 12 0 1.173.173 2.339.513 3.466.119.395.534.621.935.502.396-.12.621-.538.501-.935-.298-.987-.449-2.007-.449-3.033 0-5.79 4.71-10.5 10.5-10.5 2.571 0 4.982.93 6.863 2.576l-.643.644c-.472.47-.139 1.28.53 1.28h2.5c.414 0 .75-.336.75-.75v-2.5c0-.663-.805-1.004-1.28-.53z"/><path d="m23.487 8.534c-.12-.396-.535-.623-.935-.502-.396.12-.621.538-.501.935.298.987.449 2.007.449 3.033 0 5.79-4.71 10.5-10.5 10.5-2.571 0-4.982-.93-6.863-2.576l.643-.644c.472-.47.139-1.28-.53-1.28h-2.5c-.414 0-.75.336-.75.75v2.5c0 .669.811.999 1.28.53l.796-.796c2.163 1.927 4.95 3.016 7.924 3.016 6.617 0 12-5.383 12-12 0-1.173-.173-2.339-.513-3.466z"/><path d="m12 5 7 3-7 3-7-3z"/><path d="m11 12.747-6-2.571v5.824c0 .207.127.393.32.467l5.68 2.184z"/><path d="m13 12.747v5.904l5.68-2.185c.193-.073.32-.259.32-.466v-5.824z"/></svg>