<svg id="bold" enable-background="new 0 0 24 24" height="512" viewBox="0 0 24 24" width="512" xmlns="http://www.w3.org/2000/svg"><path d="m12.921.611c-.115-.271-.351-.466-.635-.553-.183-.076-.39-.076-.573 0-.284.087-.52.282-.635.553l-1.358 1.359c-.471.471-.136 1.28.53 1.28h.75v3.75c0 .552.448 1 1 1s1-.448 1-1v-3.75h.75c.666 0 1.001-.809.53-1.28z"/><path d="m22.72 20.22-.543.543-2.47-2.47c-.391-.391-1.023-.391-1.414 0s-.391 1.023 0 1.414l2.47 2.47-.543.543c-.471.471-.136 1.28.53 1.28h2.5c.414 0 .75-.336.75-.75v-2.5c0-.664-.806-1.003-1.28-.53z"/><path d="m4.293 18.293-2.47 2.47-.543-.543c-.471-.47-1.28-.138-1.28.53v2.5c0 .414.336.75.75.75h2.5c.666 0 1.001-.809.53-1.28l-.543-.543 2.47-2.47c.391-.391.391-1.023 0-1.414s-1.023-.391-1.414 0z"/><path d="m14.5 5v2c0 1.378-1.122 2.5-2.5 2.5s-2.5-1.122-2.5-2.5v-2l-7.5 3 10 4 10-4z"/><path d="m17.232 20.768c-.975-.975-.975-2.561 0-3.535s2.561-.975 3.535 0l1.233 1.232v-8.311l-9 3.6v9.91l5.21-1.919z"/><path d="m2 10.154v8.31l1.232-1.232c.975-.975 2.561-.975 3.535 0s.975 2.561 0 3.535l-.977.978 5.21 1.919v-9.91z"/></svg>